# xmcd
#
# Track frame offsets:
#	182
#	17657
#	35945
#	52607
#	72857
#	90267
#	114510
#	132407
#	147752
#	166397
#	187445
#	204715
#	225632
#	245750
#	262020
#	278290
#
# Disc length: 3930 seconds
#
# Revision: 0
# Processed by: cddbd v1.5.1PL0 Copyright (c) Steve Scherf et al.
# Submitted via: audiograbber 1.83.01
#
DISCID=e50f5810
DTITLE=Andreas Martin - 16 Kuschelhits
DYEAR=1900
DGENRE=Soul
TTITLE0=Amore Mio
TTITLE1=Bleib heut'nacht
TTITLE2=Abschied von den Sternen
TTITLE3=Der Himmel kann warten
TTITLE4=Solo Tu
TTITLE5=Samstag nacht in der Stadt
TTITLE6=Psst... Komm und lieb'michheut' nacht
TTITLE7=Wenn Du weinst
TTITLE8=Bittersüß
TTITLE9=Weil es den and'ren gibt
TTITLE10=Meine lange Reise zu Dir
TTITLE11=Ich brauch' Deine Liebe
TTITLE12=Spuren,die der Wind verweht
TTITLE13=Ich lebe,ich sterbe
TTITLE14=Wo liegt das Ziel Deiner Reise?
TTITLE15=Laß Dich lieben
EXTD=
EXTT0=
EXTT1=
EXTT2=
EXTT3=
EXTT4=
EXTT5=
EXTT6=
EXTT7=
EXTT8=
EXTT9=
EXTT10=
EXTT11=
EXTT12=
EXTT13=
EXTT14=
EXTT15=
PLAYORDER=
